<mxfile host="app.diagrams.net" agent="Mozilla/5.0 (Windows NT 10.0; Win64; x64) AppleWebKit/537.36 (KHTML, like Gecko) Chrome/138.0.0.0 Safari/537.36" version="28.0.7">
  <diagram name="Page-1" id="3yKaOUPeFDpp_aXZw62i">
    <mxGraphModel dx="1281" dy="614" grid="1" gridSize="10" guides="1" tooltips="1" connect="1" arrows="1" fold="1" page="1" pageScale="1" pageWidth="850" pageHeight="1100" background="#FFFFFF" math="0" shadow="0">
      <root>
        <mxCell id="0" />
        <mxCell id="1" parent="0" />
        <mxCell id="BsYPp7Rf-edb-70at_gm-1" value="&lt;b&gt;&lt;u&gt;Abstraction flowchart of Computer&lt;/u&gt;&lt;/b&gt;" style="text;html=1;align=center;verticalAlign=middle;whiteSpace=wrap;rounded=0;" vertex="1" parent="1">
          <mxGeometry x="290" y="50" width="240" height="10" as="geometry" />
        </mxCell>
        <mxCell id="BsYPp7Rf-edb-70at_gm-2" value="Start" style="ellipse;whiteSpace=wrap;html=1;fillColor=#4CF3E9;" vertex="1" parent="1">
          <mxGeometry x="342.5" y="80" width="110" height="50" as="geometry" />
        </mxCell>
        <mxCell id="BsYPp7Rf-edb-70at_gm-3" value="User gives input" style="shape=parallelogram;perimeter=parallelogramPerimeter;whiteSpace=wrap;html=1;fixedSize=1;fillColor=#3EFFA6;" vertex="1" parent="1">
          <mxGeometry x="327.5" y="150" width="140" height="40" as="geometry" />
        </mxCell>
        <mxCell id="BsYPp7Rf-edb-70at_gm-4" value="Computer performs task" style="rounded=0;whiteSpace=wrap;html=1;fillColor=#FFD966;" vertex="1" parent="1">
          <mxGeometry x="315" y="220" width="165" height="40" as="geometry" />
        </mxCell>
        <mxCell id="BsYPp7Rf-edb-70at_gm-5" value="Is the task completed successfully?" style="rhombus;whiteSpace=wrap;html=1;fillColor=#D4E1F5;" vertex="1" parent="1">
          <mxGeometry x="322.5" y="290" width="150" height="110" as="geometry" />
        </mxCell>
        <mxCell id="BsYPp7Rf-edb-70at_gm-6" value="Show result to user" style="shape=parallelogram;perimeter=parallelogramPerimeter;whiteSpace=wrap;html=1;fixedSize=1;fillColor=#3EFFA6;" vertex="1" parent="1">
          <mxGeometry x="110" y="322.5" width="160" height="50" as="geometry" />
        </mxCell>
        <mxCell id="BsYPp7Rf-edb-70at_gm-7" value="Show error" style="shape=parallelogram;perimeter=parallelogramPerimeter;whiteSpace=wrap;html=1;fixedSize=1;fillColor=#3EFFA6;" vertex="1" parent="1">
          <mxGeometry x="530" y="322.5" width="152.5" height="45" as="geometry" />
        </mxCell>
        <mxCell id="BsYPp7Rf-edb-70at_gm-8" value="End" style="ellipse;whiteSpace=wrap;html=1;fillColor=#4CF3E9;" vertex="1" parent="1">
          <mxGeometry x="343.75" y="430" width="107.5" height="60" as="geometry" />
        </mxCell>
        <mxCell id="BsYPp7Rf-edb-70at_gm-9" value="" style="endArrow=classic;html=1;rounded=0;exitX=0.5;exitY=1;exitDx=0;exitDy=0;entryX=0.5;entryY=0;entryDx=0;entryDy=0;" edge="1" parent="1" source="BsYPp7Rf-edb-70at_gm-2" target="BsYPp7Rf-edb-70at_gm-3">
          <mxGeometry width="50" height="50" relative="1" as="geometry">
            <mxPoint x="400" y="350" as="sourcePoint" />
            <mxPoint x="450" y="300" as="targetPoint" />
          </mxGeometry>
        </mxCell>
        <mxCell id="BsYPp7Rf-edb-70at_gm-10" value="" style="endArrow=classic;html=1;rounded=0;entryX=0.5;entryY=0;entryDx=0;entryDy=0;exitX=0.5;exitY=1;exitDx=0;exitDy=0;" edge="1" parent="1" source="BsYPp7Rf-edb-70at_gm-3" target="BsYPp7Rf-edb-70at_gm-4">
          <mxGeometry width="50" height="50" relative="1" as="geometry">
            <mxPoint x="400" y="350" as="sourcePoint" />
            <mxPoint x="450" y="300" as="targetPoint" />
          </mxGeometry>
        </mxCell>
        <mxCell id="BsYPp7Rf-edb-70at_gm-11" value="" style="endArrow=classic;html=1;rounded=0;entryX=0.5;entryY=0;entryDx=0;entryDy=0;exitX=0.5;exitY=1;exitDx=0;exitDy=0;" edge="1" parent="1" source="BsYPp7Rf-edb-70at_gm-4" target="BsYPp7Rf-edb-70at_gm-5">
          <mxGeometry width="50" height="50" relative="1" as="geometry">
            <mxPoint x="400" y="350" as="sourcePoint" />
            <mxPoint x="450" y="300" as="targetPoint" />
          </mxGeometry>
        </mxCell>
        <mxCell id="BsYPp7Rf-edb-70at_gm-12" value="" style="endArrow=classic;html=1;rounded=0;entryX=0;entryY=0.5;entryDx=0;entryDy=0;exitX=1;exitY=0.5;exitDx=0;exitDy=0;" edge="1" parent="1" source="BsYPp7Rf-edb-70at_gm-5" target="BsYPp7Rf-edb-70at_gm-7">
          <mxGeometry relative="1" as="geometry">
            <mxPoint x="425" y="354.5" as="sourcePoint" />
            <mxPoint x="525" y="354.5" as="targetPoint" />
          </mxGeometry>
        </mxCell>
        <mxCell id="BsYPp7Rf-edb-70at_gm-13" value="No" style="edgeLabel;resizable=0;html=1;;align=center;verticalAlign=middle;" connectable="0" vertex="1" parent="BsYPp7Rf-edb-70at_gm-12">
          <mxGeometry relative="1" as="geometry" />
        </mxCell>
        <mxCell id="BsYPp7Rf-edb-70at_gm-15" value="" style="endArrow=classic;html=1;rounded=0;entryX=1;entryY=0.5;entryDx=0;entryDy=0;exitX=0;exitY=0.5;exitDx=0;exitDy=0;" edge="1" parent="1" source="BsYPp7Rf-edb-70at_gm-5" target="BsYPp7Rf-edb-70at_gm-6">
          <mxGeometry relative="1" as="geometry">
            <mxPoint x="380" y="320" as="sourcePoint" />
            <mxPoint x="480" y="320" as="targetPoint" />
          </mxGeometry>
        </mxCell>
        <mxCell id="BsYPp7Rf-edb-70at_gm-16" value="Yes" style="edgeLabel;resizable=0;html=1;;align=center;verticalAlign=middle;" connectable="0" vertex="1" parent="BsYPp7Rf-edb-70at_gm-15">
          <mxGeometry relative="1" as="geometry" />
        </mxCell>
        <mxCell id="BsYPp7Rf-edb-70at_gm-20" value="" style="endArrow=classic;html=1;rounded=0;entryX=0;entryY=0.5;entryDx=0;entryDy=0;exitX=0.5;exitY=1;exitDx=0;exitDy=0;" edge="1" parent="1" source="BsYPp7Rf-edb-70at_gm-6" target="BsYPp7Rf-edb-70at_gm-8">
          <mxGeometry width="50" height="50" relative="1" as="geometry">
            <mxPoint x="400" y="350" as="sourcePoint" />
            <mxPoint x="450" y="300" as="targetPoint" />
            <Array as="points">
              <mxPoint x="190" y="460" />
            </Array>
          </mxGeometry>
        </mxCell>
        <mxCell id="BsYPp7Rf-edb-70at_gm-21" value="" style="endArrow=classic;html=1;rounded=0;entryX=1;entryY=0.5;entryDx=0;entryDy=0;exitX=0.5;exitY=1;exitDx=0;exitDy=0;" edge="1" parent="1" source="BsYPp7Rf-edb-70at_gm-7" target="BsYPp7Rf-edb-70at_gm-8">
          <mxGeometry width="50" height="50" relative="1" as="geometry">
            <mxPoint x="400" y="350" as="sourcePoint" />
            <mxPoint x="450" y="300" as="targetPoint" />
            <Array as="points">
              <mxPoint x="606" y="460" />
            </Array>
          </mxGeometry>
        </mxCell>
        <mxCell id="BsYPp7Rf-edb-70at_gm-22" value="&lt;b&gt;By Aaradhya Adhikari&lt;/b&gt;&lt;div&gt;&lt;b&gt;Class: 7&lt;/b&gt;&lt;/div&gt;" style="text;html=1;align=center;verticalAlign=middle;whiteSpace=wrap;rounded=0;" vertex="1" parent="1">
          <mxGeometry x="630" y="430" width="137.5" height="30" as="geometry" />
        </mxCell>
      </root>
    </mxGraphModel>
  </diagram>
</mxfile>
